<svg width="68" height="68" viewBox="0 0 68 68" fill="none" xmlns="http://www.w3.org/2000/svg">
<mask id="path-1-inside-1_824_2584" fill="white">
<path d="M64.7347 35.5848C64.8236 35.6736 64.8941 35.7792 64.9421 35.8953C64.9902 36.0114 65.015 36.1359 65.0149 36.2615V39.2663C65.0149 40.8824 63.7003 42.1972 62.0841 42.1972C59.2836 42.1972 57.5333 44.0136 56.8292 45.7136C56.1251 47.4137 56.0781 49.9359 58.0584 51.9162C58.6119 52.4697 58.9167 53.2058 58.9167 53.9888C58.9167 54.7718 58.6119 55.5077 58.0584 56.0613L53.8089 60.3108C52.6661 61.4535 50.8066 61.4536 49.6639 60.3108C47.6835 58.3304 45.1615 58.3773 43.4614 59.0814C41.7614 59.7855 39.945 61.5358 39.945 64.3365C39.945 65.9525 38.6301 67.2673 37.0141 67.2673H31.0047C29.3886 67.2673 28.0738 65.9526 28.0738 64.3365C28.0738 61.9901 26.7271 59.9747 24.5593 59.0768C22.3914 58.1786 20.014 58.6517 18.3548 60.3108C17.2121 61.4536 15.3527 61.4536 14.2099 60.3108L9.96036 56.0613C8.81767 54.9186 8.81767 53.0591 9.96036 51.9164C11.9407 49.936 11.8938 47.4138 11.1896 45.7137C10.4855 44.0138 8.73509 42.1973 5.93454 42.1973C4.31853 42.1973 3.0037 40.8826 3.0037 39.2665V28.6019L1.86401 29.7416C1.68393 29.9181 1.44147 30.0164 1.18931 30.0151C0.937147 30.0139 0.695674 29.9131 0.517368 29.7348C0.339063 29.5565 0.238333 29.3151 0.237073 29.0629C0.235812 28.8107 0.334121 28.5683 0.510635 28.3882L3.28411 25.6147C3.46359 25.4353 3.707 25.3344 3.9608 25.3344C4.2146 25.3344 4.45801 25.4353 4.63749 25.6147L7.41097 28.3882C7.58748 28.5683 7.68579 28.8107 7.68453 29.0629C7.68327 29.3151 7.58254 29.5565 7.40423 29.7348C7.22593 29.9131 6.98445 30.0139 6.7323 30.0151C6.48014 30.0164 6.23767 29.9181 6.05759 29.7416L4.9179 28.6019V39.2665C4.9179 39.8272 5.37399 40.2833 5.93468 40.2833C9.06649 40.2833 11.7577 42.0834 12.9581 44.9813C14.1584 47.8792 13.5284 51.0552 11.3139 53.2699C11.2192 53.3641 11.1441 53.4762 11.093 53.5996C11.0419 53.723 11.0157 53.8553 11.0161 53.9889C11.0161 54.2606 11.1218 54.516 11.3139 54.7079L15.5634 58.9574C15.9599 59.3539 16.6049 59.3539 17.0014 58.9574C19.2184 56.7404 22.3952 56.1087 25.2919 57.3084C28.1885 58.5083 29.988 61.2014 29.988 64.3365C29.988 64.8971 30.4441 65.3532 31.0048 65.3532H37.0143C37.5749 65.3532 38.031 64.8971 38.031 64.3365C38.031 61.2046 39.8312 58.5135 42.7291 57.3131C45.6269 56.1128 48.8028 56.7428 51.0175 58.9574C51.4142 59.354 52.0593 59.3537 52.4558 58.9574L56.7052 54.7079C57.1017 54.3114 57.1017 53.6662 56.7052 53.2698C54.4906 51.0552 53.8606 47.8792 55.061 44.9812C56.2612 42.0834 58.9524 40.2833 62.0842 40.2833C62.6449 40.2833 63.101 39.8272 63.101 39.2665V37.2187H49.6221C49.1262 45.3997 42.3132 51.9029 34.0097 51.9029C25.7074 51.9029 18.8951 45.4008 18.3977 37.2213L8.47286 37.25H8.46999C8.21668 37.25 7.97371 37.1495 7.79432 36.9707C7.61493 36.7918 7.51375 36.5492 7.51296 36.2959C7.51223 36.042 7.61234 35.7983 7.79128 35.6183C7.97021 35.4383 8.21331 35.3368 8.46712 35.336L19.3227 35.3045H19.3255C19.5793 35.3045 19.8227 35.4053 20.0022 35.5848C20.1817 35.7643 20.2825 36.0077 20.2825 36.2615C20.2825 43.8307 26.4404 49.9888 34.0096 49.9888C41.5788 49.9888 47.7368 43.8308 47.7368 36.2617C47.7368 36.0079 47.8377 35.7644 48.0171 35.585C48.1966 35.4055 48.44 35.3046 48.6939 35.3046H64.058C64.1837 35.3046 64.3082 35.3293 64.4243 35.3773C64.5404 35.4254 64.6458 35.4959 64.7347 35.5848ZM42.4856 35.3045C42.7394 35.3045 42.9829 35.4053 43.1623 35.5848C43.3418 35.7643 43.4426 36.0077 43.4426 36.2615C43.4426 41.463 39.2109 45.6947 34.0095 45.6947C28.808 45.6947 24.5763 41.463 24.5763 36.2615C24.5763 36.0077 24.6771 35.7643 24.8566 35.5848C25.0361 35.4053 25.2795 35.3045 25.5333 35.3045H42.4856ZM41.4679 37.2186H26.5509C27.0224 40.9144 30.1875 43.7807 34.0093 43.7807C37.8313 43.7807 40.9963 40.9144 41.4679 37.2186ZM67.4893 28.8738C67.3098 28.6944 67.0664 28.5935 66.8126 28.5935C66.5588 28.5935 66.3154 28.6944 66.1359 28.8738L64.991 30.0188C64.6868 22.2003 61.4979 14.8935 55.9337 9.32932C50.0776 3.47324 42.2913 0.248047 34.0096 0.248047C27.3291 0.248047 20.9554 2.34736 15.5779 6.31918C10.1981 10.2925 6.31981 15.7673 4.36173 22.1519C4.31235 22.3129 4.26427 22.4743 4.21749 22.636C4.18249 22.7568 4.17162 22.8832 4.18552 23.0082C4.19941 23.1332 4.23779 23.2542 4.29847 23.3643C4.35914 23.4744 4.44092 23.5715 4.53913 23.65C4.63734 23.7285 4.75006 23.7869 4.87084 23.8218C4.99162 23.8567 5.1181 23.8675 5.24305 23.8535C5.368 23.8396 5.48897 23.8011 5.59906 23.7404C5.70914 23.6796 5.80617 23.5978 5.88462 23.4995C5.96306 23.4013 6.02137 23.2885 6.05622 23.1677C6.10011 23.0155 6.14536 22.8639 6.19157 22.713C9.96132 10.4209 21.1405 2.16211 34.0095 2.16211C49.6324 2.16211 62.4187 14.5414 63.0745 30.0058L61.9425 28.8738C61.7624 28.6973 61.5199 28.599 61.2678 28.6002C61.0156 28.6015 60.7741 28.7022 60.5958 28.8805C60.4175 29.0588 60.3168 29.3003 60.3155 29.5525C60.3143 29.8046 60.4126 30.0471 60.5891 30.2272L63.3626 33.0007C63.5495 33.1876 63.7943 33.2809 64.0393 33.2809C64.2843 33.2809 64.5292 33.1874 64.7161 33.0007L67.4896 30.2272C67.6689 30.0476 67.7696 29.8042 67.7696 29.5504C67.7695 29.2967 67.6687 29.0533 67.4893 28.8738ZM28.3105 11.049V17.4977L36.5085 15.2771C36.6504 15.2386 36.7993 15.2334 36.9436 15.2617C37.0878 15.2901 37.2236 15.3513 37.3404 15.4407C37.4572 15.53 37.5518 15.6451 37.6169 15.7769C37.682 15.9087 37.7158 16.0538 37.7158 16.2008V17.4976L45.9138 15.277C46.0557 15.2385 46.2046 15.2332 46.3489 15.2616C46.4931 15.29 46.6289 15.3512 46.7457 15.4405C46.8624 15.5299 46.9571 15.6449 47.0222 15.7767C47.0873 15.9086 47.1211 16.0536 47.1211 16.2007V29.5444C47.1211 29.7982 47.0202 30.0417 46.8408 30.2211C46.6613 30.4006 46.4179 30.5014 46.164 30.5014H21.8599C21.6062 30.5014 21.3627 30.4006 21.1833 30.2212C21.0038 30.0417 20.903 29.7983 20.9029 29.5445L20.9003 11.0486C20.8972 10.6296 21.0611 10.2282 21.3617 9.92541C21.5093 9.77576 21.6853 9.65704 21.8793 9.57619C22.0733 9.49534 22.2815 9.45399 22.4917 9.45455H26.7167C27.1421 9.45455 27.5423 9.62053 27.8434 9.92185C27.9919 10.0695 28.1097 10.2452 28.1898 10.4386C28.27 10.6321 28.311 10.8395 28.3105 11.049ZM22.8144 11.3687L22.8145 12.6129H26.3964V11.3687H22.8144ZM26.3964 28.5877V14.527H22.8148L22.8168 28.5875L26.3964 28.5877ZM28.3105 19.4808V28.5877H45.207V17.4516L37.0089 19.6722C36.867 19.7106 36.7182 19.7158 36.574 19.6874C36.4297 19.659 36.294 19.5978 36.1772 19.5085C36.0605 19.4192 35.9659 19.3041 35.9008 19.1724C35.8356 19.0406 35.8017 18.8956 35.8017 18.7486V17.4518L28.3105 19.4808ZM29.7377 23.2666H31.1284C31.3542 23.2666 31.5385 23.0823 31.5385 22.8564V20.998C31.5385 20.7721 31.3542 20.5878 31.1284 20.5878H29.7377C29.5118 20.5878 29.3275 20.7721 29.3275 20.998V22.8564C29.3275 23.0824 29.5118 23.2666 29.7377 23.2666ZM32.9841 23.2666H34.3748C34.6006 23.2666 34.7849 23.0823 34.7849 22.8564V20.998C34.7849 20.7721 34.6006 20.5878 34.3748 20.5878H32.9841C32.7582 20.5878 32.5739 20.7721 32.5739 20.998V22.8564C32.5739 23.0824 32.7581 23.2666 32.9841 23.2666ZM39.143 23.2666H40.5337C40.7595 23.2666 40.9438 23.0823 40.9438 22.8564V20.998C40.9438 20.7721 40.7595 20.5878 40.5337 20.5878H39.143C38.9171 20.5878 38.7328 20.7721 38.7328 20.998V22.8564C38.7328 23.0824 38.917 23.2666 39.143 23.2666ZM42.3894 23.2666H43.7801C44.0059 23.2666 44.1902 23.0823 44.1902 22.8564V20.998C44.1902 20.7721 44.0059 20.5878 43.7801 20.5878H42.3894C42.1635 20.5878 41.9792 20.7721 41.9792 20.998V22.8564C41.9792 23.0824 42.1634 23.2666 42.3894 23.2666Z"/>
</mask>
<path d="M64.7347 35.5848C64.8236 35.6736 64.8941 35.7792 64.9421 35.8953C64.9902 36.0114 65.015 36.1359 65.0149 36.2615V39.2663C65.0149 40.8824 63.7003 42.1972 62.0841 42.1972C59.2836 42.1972 57.5333 44.0136 56.8292 45.7136C56.1251 47.4137 56.0781 49.9359 58.0584 51.9162C58.6119 52.4697 58.9167 53.2058 58.9167 53.9888C58.9167 54.7718 58.6119 55.5077 58.0584 56.0613L53.8089 60.3108C52.6661 61.4535 50.8066 61.4536 49.6639 60.3108C47.6835 58.3304 45.1615 58.3773 43.4614 59.0814C41.7614 59.7855 39.945 61.5358 39.945 64.3365C39.945 65.9525 38.6301 67.2673 37.0141 67.2673H31.0047C29.3886 67.2673 28.0738 65.9526 28.0738 64.3365C28.0738 61.9901 26.7271 59.9747 24.5593 59.0768C22.3914 58.1786 20.014 58.6517 18.3548 60.3108C17.2121 61.4536 15.3527 61.4536 14.2099 60.3108L9.96036 56.0613C8.81767 54.9186 8.81767 53.0591 9.96036 51.9164C11.9407 49.936 11.8938 47.4138 11.1896 45.7137C10.4855 44.0138 8.73509 42.1973 5.93454 42.1973C4.31853 42.1973 3.0037 40.8826 3.0037 39.2665V28.6019L1.86401 29.7416C1.68393 29.9181 1.44147 30.0164 1.18931 30.0151C0.937147 30.0139 0.695674 29.9131 0.517368 29.7348C0.339063 29.5565 0.238333 29.3151 0.237073 29.0629C0.235812 28.8107 0.334121 28.5683 0.510635 28.3882L3.28411 25.6147C3.46359 25.4353 3.707 25.3344 3.9608 25.3344C4.2146 25.3344 4.45801 25.4353 4.63749 25.6147L7.41097 28.3882C7.58748 28.5683 7.68579 28.8107 7.68453 29.0629C7.68327 29.3151 7.58254 29.5565 7.40423 29.7348C7.22593 29.9131 6.98445 30.0139 6.7323 30.0151C6.48014 30.0164 6.23767 29.9181 6.05759 29.7416L4.9179 28.6019V39.2665C4.9179 39.8272 5.37399 40.2833 5.93468 40.2833C9.06649 40.2833 11.7577 42.0834 12.9581 44.9813C14.1584 47.8792 13.5284 51.0552 11.3139 53.2699C11.2192 53.3641 11.1441 53.4762 11.093 53.5996C11.0419 53.723 11.0157 53.8553 11.0161 53.9889C11.0161 54.2606 11.1218 54.516 11.3139 54.7079L15.5634 58.9574C15.9599 59.3539 16.6049 59.3539 17.0014 58.9574C19.2184 56.7404 22.3952 56.1087 25.2919 57.3084C28.1885 58.5083 29.988 61.2014 29.988 64.3365C29.988 64.8971 30.4441 65.3532 31.0048 65.3532H37.0143C37.5749 65.3532 38.031 64.8971 38.031 64.3365C38.031 61.2046 39.8312 58.5135 42.7291 57.3131C45.6269 56.1128 48.8028 56.7428 51.0175 58.9574C51.4142 59.354 52.0593 59.3537 52.4558 58.9574L56.7052 54.7079C57.1017 54.3114 57.1017 53.6662 56.7052 53.2698C54.4906 51.0552 53.8606 47.8792 55.061 44.9812C56.2612 42.0834 58.9524 40.2833 62.0842 40.2833C62.6449 40.2833 63.101 39.8272 63.101 39.2665V37.2187H49.6221C49.1262 45.3997 42.3132 51.9029 34.0097 51.9029C25.7074 51.9029 18.8951 45.4008 18.3977 37.2213L8.47286 37.25H8.46999C8.21668 37.25 7.97371 37.1495 7.79432 36.9707C7.61493 36.7918 7.51375 36.5492 7.51296 36.2959C7.51223 36.042 7.61234 35.7983 7.79128 35.6183C7.97021 35.4383 8.21331 35.3368 8.46712 35.336L19.3227 35.3045H19.3255C19.5793 35.3045 19.8227 35.4053 20.0022 35.5848C20.1817 35.7643 20.2825 36.0077 20.2825 36.2615C20.2825 43.8307 26.4404 49.9888 34.0096 49.9888C41.5788 49.9888 47.7368 43.8308 47.7368 36.2617C47.7368 36.0079 47.8377 35.7644 48.0171 35.585C48.1966 35.4055 48.44 35.3046 48.6939 35.3046H64.058C64.1837 35.3046 64.3082 35.3293 64.4243 35.3773C64.5404 35.4254 64.6458 35.4959 64.7347 35.5848ZM42.4856 35.3045C42.7394 35.3045 42.9829 35.4053 43.1623 35.5848C43.3418 35.7643 43.4426 36.0077 43.4426 36.2615C43.4426 41.463 39.2109 45.6947 34.0095 45.6947C28.808 45.6947 24.5763 41.463 24.5763 36.2615C24.5763 36.0077 24.6771 35.7643 24.8566 35.5848C25.0361 35.4053 25.2795 35.3045 25.5333 35.3045H42.4856ZM41.4679 37.2186H26.5509C27.0224 40.9144 30.1875 43.7807 34.0093 43.7807C37.8313 43.7807 40.9963 40.9144 41.4679 37.2186ZM67.4893 28.8738C67.3098 28.6944 67.0664 28.5935 66.8126 28.5935C66.5588 28.5935 66.3154 28.6944 66.1359 28.8738L64.991 30.0188C64.6868 22.2003 61.4979 14.8935 55.9337 9.32932C50.0776 3.47324 42.2913 0.248047 34.0096 0.248047C27.3291 0.248047 20.9554 2.34736 15.5779 6.31918C10.1981 10.2925 6.31981 15.7673 4.36173 22.1519C4.31235 22.3129 4.26427 22.4743 4.21749 22.636C4.18249 22.7568 4.17162 22.8832 4.18552 23.0082C4.19941 23.1332 4.23779 23.2542 4.29847 23.3643C4.35914 23.4744 4.44092 23.5715 4.53913 23.65C4.63734 23.7285 4.75006 23.7869 4.87084 23.8218C4.99162 23.8567 5.1181 23.8675 5.24305 23.8535C5.368 23.8396 5.48897 23.8011 5.59906 23.7404C5.70914 23.6796 5.80617 23.5978 5.88462 23.4995C5.96306 23.4013 6.02137 23.2885 6.05622 23.1677C6.10011 23.0155 6.14536 22.8639 6.19157 22.713C9.96132 10.4209 21.1405 2.16211 34.0095 2.16211C49.6324 2.16211 62.4187 14.5414 63.0745 30.0058L61.9425 28.8738C61.7624 28.6973 61.5199 28.599 61.2678 28.6002C61.0156 28.6015 60.7741 28.7022 60.5958 28.8805C60.4175 29.0588 60.3168 29.3003 60.3155 29.5525C60.3143 29.8046 60.4126 30.0471 60.5891 30.2272L63.3626 33.0007C63.5495 33.1876 63.7943 33.2809 64.0393 33.2809C64.2843 33.2809 64.5292 33.1874 64.7161 33.0007L67.4896 30.2272C67.6689 30.0476 67.7696 29.8042 67.7696 29.5504C67.7695 29.2967 67.6687 29.0533 67.4893 28.8738ZM28.3105 11.049V17.4977L36.5085 15.2771C36.6504 15.2386 36.7993 15.2334 36.9436 15.2617C37.0878 15.2901 37.2236 15.3513 37.3404 15.4407C37.4572 15.53 37.5518 15.6451 37.6169 15.7769C37.682 15.9087 37.7158 16.0538 37.7158 16.2008V17.4976L45.9138 15.277C46.0557 15.2385 46.2046 15.2332 46.3489 15.2616C46.4931 15.29 46.6289 15.3512 46.7457 15.4405C46.8624 15.5299 46.9571 15.6449 47.0222 15.7767C47.0873 15.9086 47.1211 16.0536 47.1211 16.2007V29.5444C47.1211 29.7982 47.0202 30.0417 46.8408 30.2211C46.6613 30.4006 46.4179 30.5014 46.164 30.5014H21.8599C21.6062 30.5014 21.3627 30.4006 21.1833 30.2212C21.0038 30.0417 20.903 29.7983 20.9029 29.5445L20.9003 11.0486C20.8972 10.6296 21.0611 10.2282 21.3617 9.92541C21.5093 9.77576 21.6853 9.65704 21.8793 9.57619C22.0733 9.49534 22.2815 9.45399 22.4917 9.45455H26.7167C27.1421 9.45455 27.5423 9.62053 27.8434 9.92185C27.9919 10.0695 28.1097 10.2452 28.1898 10.4386C28.27 10.6321 28.311 10.8395 28.3105 11.049ZM22.8144 11.3687L22.8145 12.6129H26.3964V11.3687H22.8144ZM26.3964 28.5877V14.527H22.8148L22.8168 28.5875L26.3964 28.5877ZM28.3105 19.4808V28.5877H45.207V17.4516L37.0089 19.6722C36.867 19.7106 36.7182 19.7158 36.574 19.6874C36.4297 19.659 36.294 19.5978 36.1772 19.5085C36.0605 19.4192 35.9659 19.3041 35.9008 19.1724C35.8356 19.0406 35.8017 18.8956 35.8017 18.7486V17.4518L28.3105 19.4808ZM29.7377 23.2666H31.1284C31.3542 23.2666 31.5385 23.0823 31.5385 22.8564V20.998C31.5385 20.7721 31.3542 20.5878 31.1284 20.5878H29.7377C29.5118 20.5878 29.3275 20.7721 29.3275 20.998V22.8564C29.3275 23.0824 29.5118 23.2666 29.7377 23.2666ZM32.9841 23.2666H34.3748C34.6006 23.2666 34.7849 23.0823 34.7849 22.8564V20.998C34.7849 20.7721 34.6006 20.5878 34.3748 20.5878H32.9841C32.7582 20.5878 32.5739 20.7721 32.5739 20.998V22.8564C32.5739 23.0824 32.7581 23.2666 32.9841 23.2666ZM39.143 23.2666H40.5337C40.7595 23.2666 40.9438 23.0823 40.9438 22.8564V20.998C40.9438 20.7721 40.7595 20.5878 40.5337 20.5878H39.143C38.9171 20.5878 38.7328 20.7721 38.7328 20.998V22.8564C38.7328 23.0824 38.917 23.2666 39.143 23.2666ZM42.3894 23.2666H43.7801C44.0059 23.2666 44.1902 23.0823 44.1902 22.8564V20.998C44.1902 20.7721 44.0059 20.5878 43.7801 20.5878H42.3894C42.1635 20.5878 41.9792 20.7721 41.9792 20.998V22.8564C41.9792 23.0824 42.1634 23.2666 42.3894 23.2666Z" fill="url(#paint0_linear_824_2584)" stroke="url(#paint1_linear_824_2584)" stroke-width="2.6" mask="url(#path-1-inside-1_824_2584)"/>
<defs>
<linearGradient id="paint0_linear_824_2584" x1="0.237061" y1="0.248047" x2="68.8874" y2="0.248047" gradientUnits="userSpaceOnUse">
<stop stop-color="#2E3192"/>
<stop offset="1" stop-color="#ED1C24"/>
</linearGradient>
<linearGradient id="paint1_linear_824_2584" x1="0.237061" y1="0.248047" x2="68.8874" y2="0.248047" gradientUnits="userSpaceOnUse">
<stop stop-color="#2E3192"/>
<stop offset="1" stop-color="#ED1C24"/>
</linearGradient>
</defs>
</svg>
