<svg width="136" height="41" viewBox="0 0 136 41" fill="none" xmlns="http://www.w3.org/2000/svg">
<g clip-path="url(#clip0_681_2312)">
<path d="M5.22426 0.320801H129.912C132.795 0.320801 135.136 2.59933 135.136 5.40555V35.2369C135.136 38.0431 132.795 40.3208 129.913 40.3208H5.22337C2.34028 40.3208 0.000244141 38.0423 0.000244141 35.2369V5.40555C0.000244141 2.59933 2.34118 0.320801 5.22426 0.320801Z" fill="black"/>
<path d="M44.2878 24.4829H46.1727V28.6442C45.6207 29.0714 44.978 29.3999 44.242 29.6288C43.5069 29.8577 42.7502 29.9721 41.9747 29.9721C40.8814 29.9721 39.8958 29.7406 39.0171 29.2784C38.1383 28.8163 37.449 28.1776 36.949 27.3616C36.4481 26.5465 36.1986 25.6265 36.1986 24.6026C36.1986 23.5786 36.449 22.6587 36.949 21.8435C37.449 21.0284 38.1419 20.3897 39.0251 19.9276C39.9084 19.4654 40.902 19.2339 42.0052 19.2339C42.9037 19.2339 43.7214 19.378 44.4565 19.6664C45.1916 19.9547 45.8101 20.3775 46.31 20.934L45.0534 22.1275C44.2357 21.3324 43.2501 20.934 42.0958 20.934C41.34 20.934 40.6686 21.0887 40.0807 21.3962C39.4928 21.7046 39.0332 22.1371 38.702 22.6936C38.3699 23.2501 38.2038 23.887 38.2038 24.6026C38.2038 25.3181 38.3699 25.9253 38.702 26.4818C39.0341 27.0384 39.4937 27.4761 40.0807 27.7941C40.6677 28.1121 41.3347 28.2711 42.0806 28.2711C42.918 28.2711 43.6532 28.092 44.2869 27.7338V24.4829H44.2878Z" fill="white"/>
<path d="M50.0486 29.405C49.3844 29.0573 48.8664 28.5724 48.493 27.9512C48.1196 27.33 47.9338 26.6267 47.9338 25.8413C47.9338 25.0559 48.1196 24.3552 48.493 23.7384C48.8655 23.1225 49.3844 22.6402 50.0486 22.2916C50.7128 21.9439 51.4578 21.77 52.2854 21.77C53.113 21.77 53.8732 21.9439 54.5375 22.2916C55.2017 22.6393 55.7196 23.1216 56.093 23.7384C56.4655 24.3552 56.6522 25.0559 56.6522 25.8413C56.6522 26.6267 56.4655 27.33 56.093 27.9512C55.7196 28.5724 55.2017 29.0573 54.5375 29.405C53.8732 29.7527 53.1228 29.9266 52.2854 29.9266C51.4479 29.9266 50.7119 29.7527 50.0486 29.405ZM54.0321 27.6454C54.4917 27.1885 54.7215 26.5865 54.7215 25.8413C54.7215 25.0961 54.4917 24.4941 54.0321 24.0372C53.5725 23.5803 52.99 23.3514 52.2854 23.3514C51.5808 23.3514 51.0009 23.5803 50.5467 24.0372C50.0926 24.495 49.8646 25.0961 49.8646 25.8413C49.8646 26.5865 50.0917 27.1885 50.5467 27.6454C51.0009 28.1032 51.5808 28.3313 52.2854 28.3313C52.99 28.3313 53.5725 28.1024 54.0321 27.6454Z" fill="white"/>
<path d="M59.9311 29.405C59.2669 29.0573 58.749 28.5724 58.3756 27.9512C58.0022 27.33 57.8164 26.6267 57.8164 25.8413C57.8164 25.0559 58.0022 24.3552 58.3756 23.7384C58.7481 23.1225 59.2669 22.6402 59.9311 22.2916C60.5954 21.9439 61.3404 21.77 62.168 21.77C62.9955 21.77 63.7558 21.9439 64.42 22.2916C65.0843 22.6393 65.6022 23.1216 65.9756 23.7384C66.3481 24.3552 66.5348 25.0559 66.5348 25.8413C66.5348 26.6267 66.3481 27.33 65.9756 27.9512C65.6022 28.5724 65.0843 29.0573 64.42 29.405C63.7558 29.7527 63.0054 29.9266 62.168 29.9266C61.3305 29.9266 60.5945 29.7527 59.9311 29.405ZM63.9147 27.6454C64.3743 27.1885 64.604 26.5865 64.604 25.8413C64.604 25.0961 64.3743 24.4941 63.9147 24.0372C63.4551 23.5803 62.8726 23.3514 62.168 23.3514C61.4633 23.3514 60.8835 23.5803 60.4293 24.0372C59.9751 24.495 59.7471 25.0961 59.7471 25.8413C59.7471 26.5865 59.9742 27.1885 60.4293 27.6454C60.8835 28.1032 61.4633 28.3313 62.168 28.3313C62.8726 28.3313 63.4551 28.1024 63.9147 27.6454Z" fill="white"/>
<path d="M76.4936 21.8582V28.6142C76.4936 31.4178 75.0224 32.8201 72.081 32.8201C71.2947 32.8201 70.5488 32.7231 69.8442 32.5291C69.1396 32.3352 68.557 32.0539 68.0975 31.6869L68.9556 30.2847C69.3128 30.573 69.7652 30.8045 70.3118 30.9784C70.8585 31.1522 71.4123 31.2396 71.9742 31.2396C72.8727 31.2396 73.5315 31.0404 73.9507 30.6429C74.3699 30.2454 74.579 29.639 74.579 28.823V28.4054C74.2523 28.7531 73.8538 29.017 73.3843 29.1961C72.914 29.3752 72.3988 29.4643 71.8369 29.4643C71.0604 29.4643 70.3585 29.3027 69.7302 28.9794C69.1019 28.6562 68.6064 28.2019 68.2438 27.6148C67.8811 27.0285 67.6998 26.3575 67.6998 25.6018C67.6998 24.8461 67.8811 24.1777 68.2438 23.5959C68.6064 23.014 69.1019 22.565 69.7302 22.2461C70.3585 21.9281 71.0604 21.769 71.8369 21.769C72.4293 21.769 72.9678 21.8634 73.4534 22.0521C73.9381 22.2408 74.3447 22.5291 74.6715 22.917V21.8582H76.4945H76.4936ZM73.9121 27.2496C74.3771 26.8267 74.6095 26.278 74.6095 25.6018C74.6095 24.9256 74.3771 24.3935 73.9121 23.9759C73.4471 23.5583 72.852 23.3495 72.1268 23.3495C71.4015 23.3495 70.7912 23.5583 70.3262 23.9759C69.8612 24.3935 69.6288 24.9352 69.6288 25.6018C69.6288 26.2684 69.8612 26.8276 70.3262 27.2496C70.7912 27.6724 71.3908 27.883 72.1268 27.883C72.8628 27.883 73.4471 27.6715 73.9121 27.2496Z" fill="white"/>
<path d="M79.0068 18.7559H80.9223V29.8217H79.0068V18.7559Z" fill="white"/>
<path d="M91.0957 26.4374H84.676C84.7882 27.0245 85.0818 27.4884 85.5575 27.8317C86.0323 28.1751 86.622 28.3463 87.3276 28.3463C88.226 28.3463 88.9666 28.058 89.5491 27.4814L90.576 28.6294C90.2079 29.0566 89.743 29.3799 89.182 29.5992C88.6201 29.8176 87.9873 29.9277 87.2818 29.9277C86.3824 29.9277 85.5907 29.7538 84.9067 29.4061C84.2219 29.0584 83.6941 28.5735 83.3207 27.9523C82.9473 27.3311 82.7615 26.6278 82.7615 25.8424C82.7615 25.057 82.9428 24.3685 83.3054 23.7473C83.668 23.1262 84.1707 22.6413 84.8143 22.2936C85.4579 21.9458 86.1831 21.772 86.9901 21.772C87.797 21.772 88.4989 21.9432 89.1272 22.2866C89.7556 22.6299 90.2456 23.1122 90.5984 23.7334C90.9512 24.3545 91.1271 25.0736 91.1271 25.8887C91.1271 26.018 91.1172 26.2015 91.0966 26.4409L91.0957 26.4374ZM85.4345 23.7901C85.0109 24.1431 84.7523 24.6131 84.6608 25.1994H89.3032C89.2215 24.6228 88.9711 24.1553 88.5528 23.7971C88.1336 23.4389 87.613 23.2598 86.9901 23.2598C86.3671 23.2598 85.8582 23.4363 85.4345 23.7893V23.7901Z" fill="white"/>
<path d="M104.219 19.8306C104.908 20.1285 105.437 20.5566 105.805 21.1132C106.173 21.6697 106.357 22.3311 106.357 23.0964C106.357 23.8617 106.173 24.5109 105.805 25.0726C105.437 25.6344 104.908 26.0642 104.219 26.363C103.529 26.661 102.72 26.8104 101.79 26.8104H99.3689V29.8228H97.3771V19.3833H101.79C102.719 19.3833 103.528 19.5327 104.219 19.8306ZM103.675 24.6332C104.124 24.275 104.349 23.763 104.349 23.0973C104.349 22.4315 104.124 21.9187 103.675 21.5614C103.225 21.2031 102.566 21.024 101.698 21.024H99.3689V25.1696H101.698C102.566 25.1696 103.225 24.9905 103.675 24.6323V24.6332Z" fill="white"/>
<path d="M108.317 18.7559H110.232V29.8217H108.317V18.7559Z" fill="white"/>
<path d="M118.636 22.6112C119.274 23.1729 119.594 24.0204 119.594 25.1535V29.8215H117.786V28.8518C117.551 29.1995 117.216 29.466 116.782 29.6494C116.348 29.8329 115.825 29.9255 115.211 29.9255C114.598 29.9255 114.063 29.8233 113.603 29.6197C113.143 29.4162 112.788 29.1331 112.538 28.7696C112.288 28.4071 112.163 27.9964 112.163 27.5395C112.163 26.824 112.436 26.2491 112.983 25.8166C113.529 25.3842 114.389 25.1675 115.564 25.1675H117.679V25.0478C117.679 24.4913 117.508 24.0632 117.166 23.7653C116.824 23.4674 116.315 23.318 115.641 23.318C115.182 23.318 114.729 23.3878 114.285 23.5268C113.841 23.6665 113.466 23.8596 113.159 24.1086L112.408 22.7518C112.837 22.4338 113.353 22.19 113.956 22.0214C114.558 21.8528 115.197 21.7681 115.871 21.7681C117.077 21.7681 117.998 22.0494 118.637 22.6103L118.636 22.6112ZM116.889 28.2481C117.262 28.034 117.525 27.7282 117.678 27.3307V26.4064H115.702C114.598 26.4064 114.046 26.7593 114.046 27.4653C114.046 27.8034 114.185 28.0716 114.46 28.2708C114.736 28.47 115.119 28.5687 115.609 28.5687C116.099 28.5687 116.516 28.4621 116.888 28.2481H116.889Z" fill="white"/>
<path d="M129.553 21.8584L125.723 30.4632C125.366 31.3281 124.932 31.937 124.421 32.29C123.91 32.643 123.292 32.8194 122.567 32.8194C122.159 32.8194 121.755 32.7548 121.356 32.6255C120.958 32.4962 120.631 32.3171 120.376 32.0882L121.143 30.7165C121.327 30.8851 121.543 31.0197 121.794 31.1193C122.044 31.2189 122.296 31.2687 122.552 31.2687C122.889 31.2687 123.168 31.1839 123.387 31.0153C123.607 30.8458 123.808 30.5627 123.992 30.1652L124.13 29.8525L120.56 21.8584H122.552L125.126 27.7495L127.716 21.8584H129.554H129.553Z" fill="white"/>
<path d="M32.5166 19.8108L27.368 16.9189L23.134 20.9029L27.0036 24.5443L32.5166 21.4472C32.82 21.2768 33.0013 20.971 33.0013 20.6294C33.0013 20.2878 32.82 19.982 32.5166 19.8108Z" fill="#FFD109"/>
<path d="M26.4946 16.427L20.8281 13.2442L8.41162 7.05078L22.4357 20.2458L26.4946 16.427Z" fill="#06EF79"/>
<path d="M8.61804 34.5606L20.8496 28.002L26.1293 25.035L22.4357 21.5596L8.61804 34.5606Z" fill="#F93646"/>
<path d="M7.58317 7.58447L7.5697 34.2331L21.7383 20.9027L7.58317 7.58447Z" fill="#05D5FB"/>
<path d="M39.6256 13.5875C39.193 13.5875 38.7899 13.4958 38.4156 13.3123C38.0413 13.1288 37.7155 12.8825 37.4382 12.5723C37.1599 12.263 36.9436 11.9136 36.7892 11.5257C36.6348 11.1378 36.5576 10.7359 36.5576 10.3209C36.5576 9.90588 36.6348 9.47778 36.7892 9.08988C36.9436 8.70197 37.1581 8.35774 37.4337 8.0572C37.7083 7.75666 38.0333 7.52077 38.4067 7.34866C38.7801 7.17742 39.1867 7.0918 39.6256 7.0918C40.262 7.0918 40.7871 7.2211 41.2009 7.47971C41.6147 7.73831 41.927 8.07555 42.1371 8.49054L41.498 8.92388C41.3068 8.55082 41.0438 8.27474 40.7099 8.09389C40.376 7.91304 40.0089 7.82306 39.6068 7.82306C39.2729 7.82306 38.9704 7.89208 38.6984 8.03012C38.4264 8.16816 38.193 8.35687 37.9983 8.59363C37.8035 8.83127 37.6554 9.10036 37.5531 9.4009C37.4507 9.70144 37.4005 10.0142 37.4005 10.3392C37.4005 10.6817 37.4579 11.005 37.5719 11.309C37.6859 11.613 37.8484 11.8804 38.0584 12.1119C38.2684 12.3434 38.5126 12.5251 38.7908 12.6579C39.0691 12.7899 39.3689 12.8563 39.6902 12.8563C40.0672 12.8563 40.4254 12.7628 40.7656 12.5767C41.1057 12.3906 41.4271 12.1049 41.7296 11.7196V12.5583C41.1363 13.2442 40.4352 13.5866 39.6256 13.5866V13.5875ZM41.6272 10.9621H40.209V10.3488H42.3319V13.5421H41.6272V10.9621Z" fill="white"/>
<path d="M48.0684 12.8204V13.5421H43.6011V7.13721H47.9849V7.85886H44.4349V9.93382H47.5218V10.61H44.4349V12.8204H48.0684Z" fill="white"/>
<path d="M53.954 7.85886H51.683V13.5421H50.8492V7.85886H48.5782V7.13721H53.954V7.85886Z" fill="white"/>
<path d="M56.9663 13.5421V7.13721H57.8002V13.5421H56.9663Z" fill="white"/>
<path d="M60.2102 8.63467V13.5421H59.3763V7.13721H60.081L64.104 12.1442V7.14594H64.9379V13.5421H64.1776L60.2111 8.63467H60.2102Z" fill="white"/>
<path d="M71.5272 13.5875C71.064 13.5875 70.643 13.4975 70.2669 13.3167C69.8899 13.1358 69.5641 12.8912 69.2895 12.5811C69.0148 12.2709 68.803 11.9223 68.6549 11.5344C68.5067 11.1465 68.4323 10.7481 68.4323 10.3392C68.4323 9.93034 68.5112 9.50487 68.6683 9.11696C68.8263 8.72905 69.0453 8.38308 69.3263 8.07991C69.6072 7.77588 69.9366 7.53562 70.3136 7.35827C70.6906 7.18091 71.1017 7.0918 71.546 7.0918C71.9903 7.0918 72.4293 7.18528 72.8062 7.37137C73.1832 7.55746 73.5073 7.80733 73.7792 8.1201C74.0512 8.43288 74.2612 8.78147 74.4094 9.16676C74.5575 9.55205 74.632 9.94607 74.632 10.3488C74.632 10.7761 74.5548 11.1832 74.4004 11.5711C74.246 11.959 74.0279 12.305 73.7469 12.6081C73.466 12.9122 73.1366 13.1507 72.7596 13.3254C72.3826 13.5001 71.9715 13.5866 71.5272 13.5866V13.5875ZM69.2751 10.3401C69.2751 10.6651 69.329 10.9796 69.4376 11.2828C69.5453 11.5868 69.6988 11.8559 69.8962 12.0901C70.0937 12.3242 70.3316 12.5112 70.6098 12.6492C70.8881 12.7872 71.1968 12.8563 71.537 12.8563C71.8772 12.8563 72.204 12.7837 72.4822 12.6396C72.7605 12.4954 72.9965 12.3032 73.1913 12.0621C73.3861 11.8218 73.5342 11.551 73.6365 11.2505C73.7388 10.9499 73.7891 10.6459 73.7891 10.3392C73.7891 10.0142 73.7353 9.70144 73.6266 9.4009C73.5189 9.10036 73.3636 8.83127 73.1635 8.59363C72.9624 8.35599 72.7246 8.1699 72.4499 8.03448C72.1752 7.89907 71.8709 7.83179 71.537 7.83179C71.1852 7.83179 70.8701 7.90256 70.5919 8.04409C70.3136 8.18563 70.0775 8.37609 69.8828 8.61722C69.688 8.85748 69.5381 9.12657 69.4331 9.42449C69.3281 9.72241 69.2751 10.0273 69.2751 10.3401Z" fill="white"/>
<path d="M76.6246 8.63467V13.5421H75.7908V7.13721H76.4954L80.5175 12.1442V7.14594H81.3514V13.5421H80.5911L76.6246 8.63467Z" fill="white"/>
</g>
<defs>
<clipPath id="clip0_681_2312">
<rect width="135.135" height="40" fill="white" transform="translate(0.000244141 0.320801)"/>
</clipPath>
</defs>
</svg>
