<svg xmlns="http://www.w3.org/2000/svg" width="49" height="48" viewBox="0 0 49 48">
  <g id="Group_47511" data-name="Group 47511" transform="translate(0 0)">
    <g id="linkedin-logo_1_" data-name="linkedin-logo (1)" transform="translate(13.842 12.768)">
      <path id="LinkedIn" d="M21.66,23.018v8.494H17.017V23.587c0-1.991-.671-3.35-2.352-3.35a2.561,2.561,0,0,0-2.382,1.8,3.56,3.56,0,0,0-.154,1.2v8.273H7.486s.063-13.423,0-14.814h4.643v2.1c-.009.016-.022.033-.031.048h.031V18.8a4.577,4.577,0,0,1,4.185-2.448C19.369,16.351,21.66,18.468,21.66,23.018ZM2.628,9.558A2.488,2.488,0,0,0,0,12.117a2.474,2.474,0,0,0,2.566,2.561H2.6a2.489,2.489,0,0,0,2.627-2.561A2.479,2.479,0,0,0,2.628,9.558ZM.276,31.513H4.918V16.7H.276Z" transform="translate(0 -9.558)" fill="#656566"/>
    </g>
    <g id="Ellipse_17" data-name="Ellipse 17" transform="translate(0 0)" fill="none" stroke="#656566" stroke-width="1">
      <ellipse cx="24.5" cy="24" rx="24.5" ry="24" stroke="none"/>
      <ellipse cx="24.5" cy="24" rx="24" ry="23.5" fill="none"/>
    </g>
  </g>
</svg>
