<svg width="71" height="71" viewBox="0 0 71 71" fill="none" xmlns="http://www.w3.org/2000/svg">
<g clip-path="url(#clip0_729_2906)">
<path d="M70.6495 69.3688L60.3956 42.3572C60.3109 42.133 60.1495 41.9457 59.9404 41.8281L49.0179 35.6744L52.2062 30.6186C54.1626 27.5137 55.1976 23.9248 55.1976 20.2402C55.1989 9.49824 46.4585 0.757812 35.7165 0.757812C24.9745 0.757812 16.2341 9.49687 16.2341 20.2402C16.2341 23.9248 17.2691 27.5137 19.2269 30.6186L22.4152 35.6744L11.4927 41.8268C11.2835 41.9443 11.1222 42.1316 11.0374 42.3559L0.78352 69.3688C0.582544 69.8979 0.849145 70.4912 1.37961 70.6908C1.66399 70.7988 1.98118 70.7742 2.24641 70.6252L18.7306 61.3379L35.2148 70.6252C35.5279 70.8016 35.9093 70.8016 36.221 70.6252L52.7052 61.3379L69.1894 70.6252C69.5654 70.8371 70.0343 70.7906 70.3611 70.509C70.6878 70.2273 70.804 69.7707 70.6509 69.3674L70.6495 69.3688ZM36.7419 53.9018C37.3941 53.6707 37.9491 53.2277 38.3169 52.6412C38.3689 52.5592 47.0984 38.7191 47.0984 38.7191L51.5445 59.6385L36.7419 67.9783V53.9031V53.9018ZM20.9618 29.5248C19.2105 26.748 18.2849 23.5379 18.2849 20.2402C18.2849 10.6289 26.1052 2.80859 35.7165 2.80859C45.3279 2.80859 53.1482 10.6289 53.1482 20.2402C53.1482 23.5365 52.2226 26.748 50.4726 29.5248C50.3359 29.7422 36.8253 51.1674 36.5888 51.5379C36.5861 51.5406 36.5847 51.5447 36.582 51.5475C36.3919 51.8482 36.0679 52.0287 35.7152 52.0287C35.3624 52.0287 35.037 51.8482 34.847 51.5488C34.7103 51.3314 21.1724 29.8639 20.9659 29.5344L20.9618 29.5275V29.5248ZM12.823 43.4318L22.3823 38.0465L20.7171 45.8805C20.5995 46.4342 20.9523 46.9783 21.506 47.0973C21.5771 47.1123 21.6482 47.1191 21.7206 47.1191C22.2046 47.1191 22.6216 46.7801 22.7228 46.307L24.3361 38.7191L33.1161 52.6439C33.4853 53.2277 34.0404 53.6707 34.6925 53.9018V67.9783L19.89 59.6385L21.871 50.3197C21.9886 49.766 21.6359 49.2219 21.0808 49.1029C20.5271 48.9853 19.9829 49.3381 19.8654 49.8918L17.8241 59.4949L3.70657 67.4479L12.8243 43.4305L12.823 43.4318ZM53.6103 59.4963L49.0521 38.0465L58.6101 43.4318L67.7279 67.4492L53.6103 59.4963Z" fill="url(#paint0_linear_729_2906)"/>
<path d="M46.9958 20.2402C46.9958 14.0209 41.9359 8.96094 35.7166 8.96094C29.4972 8.96094 24.4373 14.0209 24.4373 20.2402C24.4373 26.4596 29.4972 31.5195 35.7166 31.5195C41.9359 31.5195 46.9958 26.4596 46.9958 20.2402ZM26.488 20.2402C26.488 15.1516 30.6279 11.0117 35.7166 11.0117C40.8052 11.0117 44.9451 15.1516 44.9451 20.2402C44.9451 25.3289 40.8052 29.4688 35.7166 29.4688C30.6279 29.4688 26.488 25.3289 26.488 20.2402Z" fill="url(#paint1_linear_729_2906)"/>
<path d="M42.8943 20.2402C42.8943 16.2822 39.6746 13.0625 35.7166 13.0625C31.7585 13.0625 28.5388 16.2822 28.5388 20.2402C28.5388 24.1982 31.7585 27.418 35.7166 27.418C39.6746 27.418 42.8943 24.1982 42.8943 20.2402ZM30.5896 20.2402C30.5896 17.4129 32.8892 15.1133 35.7166 15.1133C38.5439 15.1133 40.8435 17.4129 40.8435 20.2402C40.8435 23.0676 38.5439 25.3672 35.7166 25.3672C32.8892 25.3672 30.5896 23.0676 30.5896 20.2402Z" fill="url(#paint2_linear_729_2906)"/>
</g>
<defs>
<linearGradient id="paint0_linear_729_2906" x1="0.716553" y1="0.757812" x2="71.8763" y2="0.757812" gradientUnits="userSpaceOnUse">
<stop stop-color="#2E3192"/>
<stop offset="1" stop-color="#ED1C24"/>
</linearGradient>
<linearGradient id="paint1_linear_729_2906" x1="24.4373" y1="8.96094" x2="47.3693" y2="8.96094" gradientUnits="userSpaceOnUse">
<stop stop-color="#2E3192"/>
<stop offset="1" stop-color="#ED1C24"/>
</linearGradient>
<linearGradient id="paint2_linear_729_2906" x1="28.5388" y1="13.0625" x2="43.1319" y2="13.0625" gradientUnits="userSpaceOnUse">
<stop stop-color="#2E3192"/>
<stop offset="1" stop-color="#ED1C24"/>
</linearGradient>
<clipPath id="clip0_729_2906">
<rect width="70" height="70" fill="white" transform="translate(0.716553 0.757812)"/>
</clipPath>
</defs>
</svg>
