<svg width="71" height="44" viewBox="0 0 71 44" fill="none" xmlns="http://www.w3.org/2000/svg">
<path d="M2.85471 22.7648L8.3913 24.9556C9.1057 25.2413 9.90344 25.1104 10.4869 24.6103L14.8685 27.3726L15.6186 27.8965C14.5351 29.623 15.0471 31.9091 16.7736 33.0045C17.4761 33.445 18.3214 33.6474 19.1549 33.5522C19.2621 35.5882 21.0123 37.1599 23.0484 37.0408C23.1198 37.0408 23.1793 37.0408 23.2508 37.0289C23.3579 39.0649 25.1082 40.6366 27.1443 40.5175C27.2157 40.5175 27.2752 40.5176 27.3467 40.5056C27.4538 42.5417 29.2041 44.1134 31.2401 43.9943C32.2522 43.9348 33.2047 43.4704 33.8596 42.6965L34.7407 41.6606L36.2171 42.756C38.015 44.1134 40.563 43.7681 41.9323 41.9702C42.3728 41.3867 42.6586 40.6842 42.73 39.9579C44.8256 40.7557 47.1593 39.696 47.9571 37.6123C48.1237 37.1718 48.219 36.6955 48.219 36.2312C50.4217 36.6717 52.553 35.2429 52.9817 33.0402C53.0174 32.8616 53.0412 32.683 53.0531 32.4925C55.2201 33.064 57.4347 31.7781 58.0063 29.6111C58.2444 28.7062 58.161 27.7536 57.78 26.8964L61.733 24.3483C62.3046 25.027 63.2571 25.2651 64.0786 24.9437L69.6152 22.7648C70.6749 22.348 71.1988 21.1335 70.7821 20.0739L68.2579 13.6681C68.0555 13.1442 67.4601 12.8942 66.9362 13.0966C66.4123 13.299 66.1623 13.8943 66.3647 14.4182L68.8889 20.824C68.8889 20.824 68.8889 20.8716 68.8651 20.8835L63.3285 23.0624C63.3285 23.0624 63.2809 23.0624 63.269 23.0386L56.3155 5.41679C56.3155 5.41679 56.3155 5.39297 56.3155 5.38107C56.3155 5.38107 56.3274 5.35725 56.3393 5.35725L61.8759 3.17834C61.8759 3.17834 61.8997 3.17834 61.9116 3.17834C61.9116 3.17834 61.9354 3.19025 61.9354 3.20215L64.6144 10.0008C64.8168 10.5247 65.4122 10.7748 65.9361 10.5724C66.46 10.3699 66.71 9.77462 66.5076 9.25072L63.8286 2.46394C63.4119 1.40425 62.1974 0.880359 61.1377 1.29709L55.6011 3.47601C54.6248 3.85702 54.089 4.91671 54.3509 5.92877L51.3862 7.02418C50.4574 7.36948 49.4692 7.46473 48.4928 7.30994L45.4924 6.83368C44.9328 6.75033 44.4208 7.13134 44.3255 7.67905C44.2422 8.22675 44.6113 8.75064 45.1709 8.83399L48.1714 9.31026C49.493 9.51267 50.8385 9.3817 52.0887 8.92924L55.0772 7.82193L60.8638 22.4909L56.506 25.289L56.4346 25.2294L48.0285 19.0261C47.8023 18.8594 47.5046 18.7879 47.2307 18.8475C43.2539 19.5381 39.1938 18.1569 36.4671 15.1683C35.6099 14.2634 34.1811 14.2158 33.2643 15.0612C30.5734 17.4782 26.8109 19.8357 24.1795 17.3353C23.9414 17.0972 23.9414 16.7162 24.1795 16.4781C24.2271 16.4304 24.2747 16.3947 24.3224 16.3709C27.7991 14.0372 31.0258 11.3582 33.9429 8.35773C34.6454 7.65523 35.6456 7.32185 36.6219 7.47663L40.4797 8.08387C41.0393 8.16722 41.5513 7.78621 41.6465 7.2385C41.7299 6.6908 41.3608 6.1669 40.8012 6.08356L36.9434 5.47632C35.3122 5.21437 33.6572 5.76208 32.5022 6.92893C32.1808 7.26232 31.7997 7.63142 31.3711 8.04815C30.0733 7.5838 28.7159 7.30994 27.3348 7.2385C25.5726 7.07181 23.7985 7.00037 22.0244 7.02418C21.2981 7.07181 20.5718 6.94084 19.905 6.66698L18.119 5.91687C18.381 4.9048 17.8452 3.85702 16.8688 3.4641L11.3322 1.28518C10.2606 0.868452 9.05807 1.39234 8.64134 2.45204L1.68786 20.0619C1.27113 21.1216 1.79502 22.3361 2.85471 22.7528V22.7648ZM20.0241 30.9446C19.4287 31.6471 18.3691 31.7424 17.6666 31.1351C16.9641 30.5279 16.8688 29.4801 17.4761 28.7776L19.9884 25.8248C20.5837 25.1223 21.6434 25.0389 22.3459 25.6343C23.0484 26.2296 23.1317 27.2893 22.5364 27.9918L20.0241 30.9446ZM24.12 34.4214C23.5246 35.1238 22.4649 35.2072 21.7625 34.6119C21.06 34.0165 20.9766 32.9568 21.5719 32.2543L24.0842 29.3015C24.6915 28.599 25.7393 28.5157 26.4537 29.111C26.4894 29.1467 26.537 29.1824 26.5727 29.2182H26.5846C27.1681 29.8492 27.1919 30.8136 26.6442 31.4566L24.1319 34.4094L24.12 34.4214ZM28.2158 37.8981C27.6205 38.6006 26.5608 38.6958 25.8583 38.0886C25.1558 37.4933 25.0606 36.4336 25.6678 35.7311L28.1801 32.7782C28.7755 32.0757 29.8351 31.9924 30.5376 32.5877C31.2401 33.1831 31.3235 34.2428 30.7281 34.9452L28.2158 37.8981ZM34.8359 38.4101L32.3236 41.3867C31.7283 42.0892 30.6686 42.1845 29.9661 41.5772C29.2636 40.9819 29.1684 39.9222 29.7756 39.2197L32.2879 36.2669C32.8832 35.5644 33.931 35.4691 34.6454 36.0526C35.3479 36.6479 35.4432 37.6957 34.8597 38.4101H34.8359ZM17.3808 7.81002L19.1192 8.53633C20.0836 8.94115 21.1195 9.10784 22.1554 9.04831C23.8461 9.0245 25.5369 9.09594 27.2157 9.26263C28.0372 9.31026 28.8588 9.44123 29.6565 9.64364C27.6443 11.4892 25.4773 13.168 23.1912 14.6802C21.9649 15.466 21.6077 17.0972 22.3816 18.3236C22.5007 18.5022 22.6316 18.6689 22.7864 18.8118C24.4891 20.4311 28.2873 22.2766 34.6335 16.5733C34.7407 16.4661 34.9074 16.4661 35.0145 16.5733C38.1103 19.9072 42.6467 21.5265 47.1593 20.9192C47.6951 21.3002 46.6592 20.5382 55.2439 26.8725C56.1726 27.5393 56.3869 28.849 55.7202 29.7778C55.7202 29.7778 55.7083 29.7897 55.6964 29.8016C55.0177 30.6708 53.7675 30.8494 52.8864 30.1826C51.6838 29.2896 52.5768 29.9683 48.3381 26.7059C47.8975 26.3606 47.2546 26.432 46.9093 26.8606C46.564 27.3012 46.6354 27.9441 47.0641 28.2894C47.0641 28.2894 47.0879 28.3013 47.0879 28.3132L50.6122 31.0161C51.2195 31.8257 51.1361 32.9568 50.4336 33.6831C49.6954 34.3856 48.5524 34.4571 47.7308 33.8379C46.9212 33.2426 47.5879 33.7546 43.8969 30.9089C43.4444 30.5755 42.8134 30.6708 42.48 31.1232C42.1585 31.5638 42.23 32.1829 42.6586 32.5282L45.7781 34.9214C46.3735 35.6954 46.3377 36.7789 45.6948 37.5052C44.9685 38.291 43.7659 38.3982 42.9086 37.7552C41.5037 36.7193 42.2061 37.2551 39.5152 35.1596C39.0866 34.8024 38.4436 34.8619 38.0864 35.3024C37.7292 35.7311 37.7888 36.374 38.2293 36.7312C38.2412 36.7431 38.265 36.7551 38.277 36.767L40.4321 38.4339C40.9321 39.2197 40.825 40.2437 40.182 40.9224C39.4438 41.6606 38.277 41.7439 37.4435 41.1129L36.0742 40.1127L36.3838 39.7436C37.7054 38.1839 37.503 35.8382 35.9433 34.5285C35.1693 33.8736 34.1573 33.5641 33.1571 33.6712C33.0499 31.6352 31.2997 30.0635 29.2517 30.1826C29.216 30.1826 29.1803 30.1826 29.1565 30.1826H29.0612V30.0992C29.0017 29.3253 28.6921 28.5871 28.192 28.0037C27.3943 27.0631 26.1917 26.5987 24.9772 26.7297C24.8701 24.6817 23.1198 23.122 21.0719 23.2291C20.0598 23.2886 19.1073 23.753 18.4524 24.5269L16.9165 26.3248L16.0235 25.6938L15.9758 25.67L11.4632 22.8243L17.3808 7.82193V7.81002ZM3.58102 20.8121L10.5345 3.19025C10.5345 3.19025 10.5583 3.16643 10.5702 3.16643H10.5821L16.1068 5.34535C16.1068 5.34535 16.1425 5.38107 16.1306 5.40488L9.17714 23.0267C9.17714 23.0267 9.14142 23.0624 9.1176 23.0505L3.59292 20.8716C3.59292 20.8716 3.5572 20.8359 3.56911 20.8121H3.58102Z" fill="url(#paint0_linear_824_2578)"/>
<path d="M10.6178 3.34503L3.60483 20.7168L8.99854 22.8957L16.0115 5.52395L10.6178 3.34503ZM10.4154 0.737479L17.9642 3.78558C18.5596 4.02371 18.8453 4.7143 18.6072 5.30963L10.7131 24.8484C10.475 25.4437 9.79628 25.7414 9.20095 25.5033L1.65214 22.4552C1.05681 22.2171 0.771052 21.5384 1.00918 20.943L8.89138 1.39234C9.12951 0.797013 9.80819 0.499347 10.4035 0.737479H10.4154Z" fill="url(#paint1_linear_824_2578)"/>
<defs>
<linearGradient id="paint0_linear_824_2578" x1="0.925293" y1="0.655273" x2="72.084" y2="0.655273" gradientUnits="userSpaceOnUse">
<stop stop-color="#2E3192"/>
<stop offset="1" stop-color="#ED1C24"/>
</linearGradient>
<linearGradient id="paint1_linear_824_2578" x1="0.925293" y1="0.655273" x2="72.084" y2="0.655273" gradientUnits="userSpaceOnUse">
<stop stop-color="#2E3192"/>
<stop offset="1" stop-color="#ED1C24"/>
</linearGradient>
</defs>
</svg>
