<svg width="21" height="24" viewBox="0 0 21 24" fill="none" xmlns="http://www.w3.org/2000/svg">
<g clip-path="url(#clip0_432_232)">
<path fill-rule="evenodd" clip-rule="evenodd" d="M14.9103 7.23031V9.39031C14.8703 12.0703 12.6703 14.2203 9.98032 14.1803C7.35032 14.1403 5.23032 12.0203 5.19032 9.39031V7.23031L8.57032 8.73031C9.51032 9.15031 10.5903 9.15031 11.5303 8.73031L14.9103 7.23031ZM2.15032 5.88031V11.2103C2.15032 11.7103 1.74032 12.1203 1.24032 12.1203C0.740322 12.1203 0.330322 11.7103 0.330322 11.2103V5.07031L0.360322 5.09031L2.15032 5.89031V5.88031Z" fill="white"/>
<path d="M19.7703 3.96012L11.5503 0.310117C10.6103 -0.109883 9.53032 -0.109883 8.58032 0.310117L0.360322 3.96012C0.0503224 4.10012 -0.0796776 4.45012 0.0503224 4.76012C0.110322 4.90012 0.220322 5.01012 0.360322 5.07012L8.58032 8.72012C9.52032 9.14012 10.6003 9.14012 11.5503 8.72012L19.7703 5.07012C20.0803 4.93012 20.2103 4.58012 20.0803 4.27012C20.0203 4.13012 19.9103 4.02012 19.7703 3.96012Z" fill="white"/>
<path d="M7.27032 15.98L9.20032 17.93C9.67032 18.41 10.4503 18.41 10.9203 17.93L12.8503 15.98C13.1403 15.67 13.5803 15.56 13.9903 15.67C17.4003 16.67 19.7903 18.94 19.7903 21.57C19.7903 22.91 18.7003 24 17.3603 24H2.76032C1.42032 24 0.330322 22.91 0.330322 21.57C0.330322 18.94 2.71032 16.67 6.13032 15.67C6.54032 15.56 6.98032 15.67 7.27032 15.98Z" fill="white"/>
</g>
<defs>
<clipPath id="clip0_432_232">
<rect width="20.13" height="24" fill="white" transform="translate(0.000244141)"/>
</clipPath>
</defs>
</svg>
