<svg width="70" height="71" viewBox="0 0 70 71" fill="none" xmlns="http://www.w3.org/2000/svg">
<mask id="mask0_729_2805" style="mask-type:luminance" maskUnits="userSpaceOnUse" x="0" y="0" width="70" height="71">
<path d="M70 0.758789H0V70.7574H70V0.758789Z" fill="white"/>
</mask>
<g mask="url(#mask0_729_2805)">
<path d="M17.1924 70.7588C16.6264 70.7588 16.167 70.2995 16.167 69.7335V64.2881C16.167 63.7221 16.6264 63.2627 17.1924 63.2627C17.7584 63.2627 18.2178 63.7221 18.2178 64.2881V69.7335C18.2178 70.2995 17.7584 70.7588 17.1924 70.7588Z" fill="url(#paint0_linear_729_2805)"/>
<path d="M52.8008 70.7588C52.2348 70.7588 51.7754 70.2995 51.7754 69.7335V64.2881C51.7754 63.7221 52.2348 63.2627 52.8008 63.2627C53.3668 63.2627 53.8262 63.7221 53.8262 64.2881V69.7335C53.8262 70.2995 53.3668 70.7588 52.8008 70.7588Z" fill="url(#paint1_linear_729_2805)"/>
</g>
<path d="M13.8823 18.9213C13.3163 18.9213 12.8569 18.4619 12.8569 17.8959V10.706C12.8569 10.14 13.3163 9.68066 13.8823 9.68066C14.4483 9.68066 14.9077 10.14 14.9077 10.706V17.8959C14.9077 18.4619 14.4483 18.9213 13.8823 18.9213Z" fill="url(#paint2_linear_729_2805)"/>
<mask id="mask1_729_2805" style="mask-type:luminance" maskUnits="userSpaceOnUse" x="0" y="0" width="70" height="71">
<path d="M70 0.758789H0V70.7574H70V0.758789Z" fill="white"/>
</mask>
<g mask="url(#mask1_729_2805)">
<path d="M58.3459 70.7584H11.6523C9.25156 70.7584 7.29785 68.8048 7.29785 66.404V64.3506C7.29785 63.7846 7.75723 63.3252 8.32324 63.3252C8.88926 63.3252 9.34863 63.7846 9.34863 64.3506V66.404C9.34863 67.6741 10.3822 68.7077 11.6523 68.7077H58.3459C59.616 68.7077 60.6496 67.6741 60.6496 66.404V56.5003C60.6496 52.8063 58.1736 49.4991 54.6285 48.4587L50.8045 47.3362L35.5234 56.4169C35.2008 56.6083 34.7988 56.6083 34.4762 56.4169L19.1951 47.3376L15.3697 48.4601C11.8246 49.5005 9.34863 52.8076 9.34863 56.5017V59.5573C9.34863 60.1233 8.88926 60.5827 8.32324 60.5827C7.75723 60.5827 7.29785 60.1233 7.29785 59.5573V56.5017C7.29785 54.2295 8.01699 52.068 9.37871 50.2497C10.7404 48.4313 12.6121 47.1312 14.7914 46.4913L19.0447 45.2431C19.3182 45.1638 19.6121 45.1994 19.8568 45.3457L34.9971 54.3429L50.1387 45.3457C50.3834 45.2007 50.6773 45.1638 50.9508 45.2431L55.2041 46.4913C57.3834 47.1312 59.2551 48.4313 60.6168 50.2497C61.9785 52.068 62.6977 54.2295 62.6977 56.5017V66.4054C62.6977 68.8061 60.7439 70.7598 58.3432 70.7598L58.3459 70.7584Z" fill="url(#paint3_linear_729_2805)"/>
<path d="M34.9984 56.5605C34.807 56.5605 34.6129 56.5072 34.4406 56.3951C33.9662 56.0861 33.8309 55.4503 34.1398 54.9759L36.948 50.6598C39.0166 47.4798 40.1104 43.7953 40.1104 40.0014C40.1104 39.6255 40.3168 39.2782 40.6477 39.0991C40.9785 38.92 41.3818 38.9364 41.6963 39.1429L51.2256 45.3675C51.7 45.6779 51.8326 46.3122 51.5236 46.7866C51.2146 47.2611 50.5789 47.3937 50.1045 47.0847L42.0832 41.8457C41.7824 45.3812 40.6162 48.7827 38.668 51.7781L35.8598 56.0943C35.6629 56.3964 35.3348 56.5605 34.9998 56.5605H34.9984Z" fill="url(#paint4_linear_729_2805)"/>
<path d="M34.9998 56.5605C34.6648 56.5605 34.3354 56.3964 34.1398 56.0943L31.3316 51.7781C29.3834 48.7827 28.2172 45.3812 27.9164 41.8444L19.8937 47.0847C19.4193 47.3937 18.7836 47.2611 18.4746 46.7866C18.1643 46.3122 18.2982 45.6765 18.7727 45.3675L28.3033 39.1429C28.6178 38.9364 29.0211 38.92 29.352 39.0991C29.6828 39.2782 29.8893 39.6241 29.8893 40.0014C29.8893 43.7953 30.983 47.4798 33.0516 50.6598L35.8598 54.9759C36.1688 55.4503 36.0348 56.0861 35.559 56.3951C35.3867 56.5072 35.1926 56.5605 35.0012 56.5605H34.9998Z" fill="url(#paint5_linear_729_2805)"/>
<path d="M34.9984 40.51C28.8598 40.51 23.7273 35.8166 23.1422 29.7532C21.8447 29.544 20.8494 28.4161 20.8494 27.0613V23.3836C20.8494 22.8176 21.3088 22.3582 21.8748 22.3582H24.1088C24.7842 22.3582 25.3324 21.8086 25.3324 21.1346V18.038C25.3324 17.472 25.7918 17.0126 26.3578 17.0126C26.9238 17.0126 27.3832 17.472 27.3832 18.038V21.1346C27.3832 22.9406 25.9135 24.409 24.1088 24.409H22.9002V27.0613C22.9002 27.4345 23.2037 27.738 23.577 27.738C24.4096 27.738 25.1041 28.3915 25.1574 29.2268C25.4842 34.4043 29.8072 38.4606 34.9984 38.4606C40.1896 38.4606 44.5127 34.4056 44.8395 29.2282C44.8928 28.3929 45.5859 27.7394 46.4199 27.7394C46.7932 27.7394 47.0967 27.4359 47.0967 27.0626V24.4103H45.8881C44.082 24.4103 42.6137 22.9406 42.6137 21.136V18.0394C42.6137 17.4734 43.073 17.014 43.6391 17.014C44.2051 17.014 44.6645 17.4734 44.6645 18.0394V21.136C44.6645 21.8114 45.2141 22.3596 45.8881 22.3596H48.1221C48.6881 22.3596 49.1475 22.819 49.1475 23.385V27.0626C49.1475 28.4188 48.1535 29.5468 46.8547 29.7546C46.2695 35.8179 41.1371 40.5114 34.9984 40.5114V40.51Z" fill="url(#paint6_linear_729_2805)"/>
<path d="M28.8598 41.0282C28.6916 41.0282 28.5234 40.9872 28.3703 40.9038C28.0408 40.7247 27.833 40.3801 27.833 40.0042V37.5857C27.833 37.0196 28.2924 36.5603 28.8584 36.5603C29.4244 36.5603 29.8838 37.0196 29.8838 37.5857V39.9249C29.9125 40.2872 29.7471 40.6522 29.4203 40.8627C29.2508 40.9721 29.0553 41.0282 28.8598 41.0282Z" fill="url(#paint7_linear_729_2805)"/>
<path d="M41.1344 41.0282C40.5684 41.0282 40.109 40.5688 40.109 40.0028V37.5898C40.109 37.0238 40.5684 36.5644 41.1344 36.5644C41.7004 36.5644 42.1598 37.0238 42.1598 37.5898V40.0028C42.1598 40.5688 41.7004 41.0282 41.1344 41.0282Z" fill="url(#paint8_linear_729_2805)"/>
<path d="M47.958 19.0634H22.0389C21.9213 19.0634 21.8092 19.0524 21.6998 19.0333C20.7223 18.8706 20.0072 18.0284 20.0072 17.0318V11.9022C20.0072 11.384 20.3928 10.9479 20.9068 10.885L32.4172 9.46043C34.1289 9.24852 35.8652 9.24852 37.577 9.46043L41.5924 9.95671C42.1543 10.0264 42.5535 10.5377 42.4838 11.0997C42.4141 11.6616 41.9014 12.0608 41.3408 11.991L37.3254 11.4948C35.7805 11.3034 34.2137 11.3034 32.6687 11.4948L22.058 12.8072V17.0099H47.9402V12.8072L46.1068 12.5803C45.5449 12.5106 45.1457 11.9992 45.2141 11.4373C45.2838 10.8754 45.7938 10.4762 46.357 10.5446L49.0914 10.8823C49.6055 10.9452 49.991 11.3827 49.991 11.8994V17.029C49.991 18.0312 49.2732 18.8733 48.2834 19.0333C48.1672 19.0511 48.0619 19.0606 47.9594 19.0606L47.958 19.0634Z" fill="url(#paint9_linear_729_2805)"/>
<path d="M48.1193 24.409C47.5533 24.409 47.0939 23.9496 47.0939 23.3836V18.0243C47.0939 17.4583 47.5533 16.9989 48.1193 16.9989C48.6854 16.9989 49.1447 17.4583 49.1447 18.0243V23.3836C49.1447 23.9496 48.6854 24.409 48.1193 24.409Z" fill="url(#paint10_linear_729_2805)"/>
<path d="M21.8748 16.9976C22.4408 16.9976 22.9002 17.4569 22.9002 18.023V23.3836C22.9002 23.9496 22.4408 24.409 21.8748 24.409C21.3088 24.409 20.8494 23.9496 20.8494 23.3836V18.023C20.8494 17.4569 21.3088 16.9976 21.8748 16.9976Z" fill="url(#paint11_linear_729_2805)"/>
<path d="M21.034 12.9275C20.9766 12.9275 20.9191 12.9234 20.8604 12.9125L13.8344 11.7162C12.8213 11.544 12.0912 10.7387 12.0201 9.71198C11.949 8.68525 12.5588 7.78702 13.5391 7.47668L34.334 0.862351C34.7674 0.724268 35.2254 0.724268 35.6602 0.862351L56.4551 7.47668C57.4354 7.78839 58.0451 8.68661 57.974 9.71198C57.9029 10.7374 57.1728 11.5426 56.1598 11.7162L49.1352 12.9125C48.5773 13.0082 48.0469 12.6322 47.9525 12.0744C47.8568 11.5166 48.2328 10.9862 48.7906 10.8918L55.8152 9.69558C55.8604 9.68738 55.9205 9.6778 55.9287 9.57117C55.9355 9.46453 55.8768 9.44539 55.8344 9.43172L35.0381 2.81739C35.0107 2.80919 34.982 2.80919 34.9561 2.81739L14.1598 9.43172C14.1174 9.44539 14.0572 9.46453 14.0654 9.57117C14.0723 9.6778 14.1338 9.68874 14.1789 9.69558L21.2049 10.8918C21.7627 10.9875 22.1387 11.5166 22.043 12.0744C21.9582 12.5748 21.5234 12.9275 21.034 12.9275Z" fill="url(#paint12_linear_729_2805)"/>
<path d="M16.2037 32.4738H11.5621C10.8881 32.4738 10.2523 32.1785 9.81758 31.6631C9.38281 31.1477 9.19824 30.4723 9.31172 29.8079L10.6967 21.676C10.7924 21.1182 11.3215 20.7422 11.8793 20.8379C12.4371 20.9336 12.8131 21.4627 12.7174 22.0205L11.3324 30.1524C11.3174 30.2399 11.3516 30.3028 11.383 30.3411C11.4145 30.378 11.4705 30.4231 11.5607 30.4231H16.2023C16.2912 30.4231 16.3473 30.378 16.3787 30.3411C16.4102 30.3042 16.4443 30.2399 16.4307 30.1524L15.0457 22.0205C14.95 21.4627 15.326 20.9323 15.8838 20.8379C16.4416 20.7422 16.9721 21.1182 17.0664 21.676L18.4514 29.8079C18.5648 30.4723 18.3803 31.1491 17.9455 31.6631C17.5107 32.1772 16.875 32.4738 16.201 32.4738H16.2037Z" fill="url(#paint13_linear_729_2805)"/>
<path d="M16.0574 22.875H11.7084C11.1424 22.875 10.683 22.4156 10.683 21.8496V18.995C10.683 17.8233 11.6359 16.8718 12.8062 16.8718H14.9582C16.1299 16.8718 17.0814 17.8247 17.0814 18.995V21.8496C17.0814 22.4156 16.6221 22.875 16.0561 22.875H16.0574ZM12.7338 20.8243H15.032V18.995C15.032 18.9554 14.9992 18.9225 14.9596 18.9225H12.8076C12.768 18.9225 12.7352 18.9554 12.7352 18.995V20.8243H12.7338Z" fill="url(#paint14_linear_729_2805)"/>
<path d="M34.9984 47.6097C33.1158 47.6097 31.2824 47.4155 29.5488 47.0341C28.9951 46.9124 28.6465 46.3656 28.7682 45.8119C28.8898 45.2582 29.4367 44.9082 29.9904 45.0312C31.5805 45.3812 33.2648 45.5589 34.9984 45.5589C36.732 45.5589 38.4178 45.3812 40.0064 45.0312C40.5602 44.9095 41.107 45.2595 41.2287 45.8119C41.3504 46.3642 41.0004 46.9124 40.448 47.0341C38.7145 47.4155 36.8811 47.6097 34.9984 47.6097Z" fill="url(#paint15_linear_729_2805)"/>
</g>
<defs>
<linearGradient id="paint0_linear_729_2805" x1="16.167" y1="63.2627" x2="18.2517" y2="63.2627" gradientUnits="userSpaceOnUse">
<stop stop-color="#2E3192"/>
<stop offset="1" stop-color="#ED1C24"/>
</linearGradient>
<linearGradient id="paint1_linear_729_2805" x1="51.7754" y1="63.2627" x2="53.8601" y2="63.2627" gradientUnits="userSpaceOnUse">
<stop stop-color="#2E3192"/>
<stop offset="1" stop-color="#ED1C24"/>
</linearGradient>
<linearGradient id="paint2_linear_729_2805" x1="12.8569" y1="9.68066" x2="14.9417" y2="9.68066" gradientUnits="userSpaceOnUse">
<stop stop-color="#2E3192"/>
<stop offset="1" stop-color="#ED1C24"/>
</linearGradient>
<linearGradient id="paint3_linear_729_2805" x1="7.29785" y1="0.758789" x2="63.6147" y2="0.758789" gradientUnits="userSpaceOnUse">
<stop stop-color="#2E3192"/>
<stop offset="1" stop-color="#ED1C24"/>
</linearGradient>
<linearGradient id="paint4_linear_729_2805" x1="7.29785" y1="0.758789" x2="63.6147" y2="0.758789" gradientUnits="userSpaceOnUse">
<stop stop-color="#2E3192"/>
<stop offset="1" stop-color="#ED1C24"/>
</linearGradient>
<linearGradient id="paint5_linear_729_2805" x1="7.29785" y1="0.758789" x2="63.6147" y2="0.758789" gradientUnits="userSpaceOnUse">
<stop stop-color="#2E3192"/>
<stop offset="1" stop-color="#ED1C24"/>
</linearGradient>
<linearGradient id="paint6_linear_729_2805" x1="7.29785" y1="0.758789" x2="63.6147" y2="0.758789" gradientUnits="userSpaceOnUse">
<stop stop-color="#2E3192"/>
<stop offset="1" stop-color="#ED1C24"/>
</linearGradient>
<linearGradient id="paint7_linear_729_2805" x1="7.29785" y1="0.758789" x2="63.6147" y2="0.758789" gradientUnits="userSpaceOnUse">
<stop stop-color="#2E3192"/>
<stop offset="1" stop-color="#ED1C24"/>
</linearGradient>
<linearGradient id="paint8_linear_729_2805" x1="7.29785" y1="0.758789" x2="63.6147" y2="0.758789" gradientUnits="userSpaceOnUse">
<stop stop-color="#2E3192"/>
<stop offset="1" stop-color="#ED1C24"/>
</linearGradient>
<linearGradient id="paint9_linear_729_2805" x1="7.29785" y1="0.758789" x2="63.6147" y2="0.758789" gradientUnits="userSpaceOnUse">
<stop stop-color="#2E3192"/>
<stop offset="1" stop-color="#ED1C24"/>
</linearGradient>
<linearGradient id="paint10_linear_729_2805" x1="7.29785" y1="0.758789" x2="63.6147" y2="0.758789" gradientUnits="userSpaceOnUse">
<stop stop-color="#2E3192"/>
<stop offset="1" stop-color="#ED1C24"/>
</linearGradient>
<linearGradient id="paint11_linear_729_2805" x1="7.29785" y1="0.758789" x2="63.6147" y2="0.758789" gradientUnits="userSpaceOnUse">
<stop stop-color="#2E3192"/>
<stop offset="1" stop-color="#ED1C24"/>
</linearGradient>
<linearGradient id="paint12_linear_729_2805" x1="7.29785" y1="0.758789" x2="63.6147" y2="0.758789" gradientUnits="userSpaceOnUse">
<stop stop-color="#2E3192"/>
<stop offset="1" stop-color="#ED1C24"/>
</linearGradient>
<linearGradient id="paint13_linear_729_2805" x1="7.29785" y1="0.758789" x2="63.6147" y2="0.758789" gradientUnits="userSpaceOnUse">
<stop stop-color="#2E3192"/>
<stop offset="1" stop-color="#ED1C24"/>
</linearGradient>
<linearGradient id="paint14_linear_729_2805" x1="7.29785" y1="0.758789" x2="63.6147" y2="0.758789" gradientUnits="userSpaceOnUse">
<stop stop-color="#2E3192"/>
<stop offset="1" stop-color="#ED1C24"/>
</linearGradient>
<linearGradient id="paint15_linear_729_2805" x1="7.29785" y1="0.758789" x2="63.6147" y2="0.758789" gradientUnits="userSpaceOnUse">
<stop stop-color="#2E3192"/>
<stop offset="1" stop-color="#ED1C24"/>
</linearGradient>
</defs>
</svg>
